<svg width="1071.471875px" height="230px" xmlns="http://www.w3.org/2000/svg" viewBox="-285.7359375 -40 1071.471875 230" style="background: none;" preserveAspectRatio="xMidYMid"><defs><filter id="editing-hover" x="-100%" y="-100%" width="300%" height="300%"><feFlood flood-color="#052b4a" result="flood"></feFlood><feComposite operator="in" in2="SourceAlpha" in="flood" result="shadow"></feComposite><feOffset dx="-4" dy="-4" in="SourceGraphic" result="offset-1"></feOffset><feOffset dx="4" dy="4" in="shadow" result="offset-2"></feOffset><feMerge><feMergeNode in="offset-2"></feMergeNode><feMergeNode in="offset-1"></feMergeNode></feMerge></filter></defs><g filter="url(#editing-hover)"><g transform="translate(-137.02498412132263, 131.2150046825409)"><path d="M126.90-87.91L126.90-69.38L121.25-69.38L121.25-18.53L126.90-18.53L126.90 0L84.19 0L84.19-18.53L89.61-18.53L89.61-58.08L70.40 0L53.68 0L33.90-57.52L33.90-18.53L39.32-18.53L39.32 0L2.26 0L2.26-18.53L7.91-18.53L7.91-69.38L2.26-69.38L2.26-87.91L54.01-87.91L65.77-52.66L77.07-87.91L126.90-87.91ZM164.87 1.58L164.87 1.58Q148.82 1.58 139.78-6.84L139.78-6.84L139.78-6.84Q130.74-15.26 130.74-31.41L130.74-31.41L130.74-31.41Q130.74-47.57 139.78-55.99L139.78-55.99L139.78-55.99Q148.82-64.41 164.87-64.41L164.87-64.41L164.87-64.41Q181.14-64.41 190.07-55.88L190.07-55.88L190.07-55.88Q198.99-47.35 198.99-31.41L198.99-31.41L198.99-31.41Q198.99-15.26 189.95-6.84L189.95-6.84L189.95-6.84Q180.91 1.58 164.87 1.58L164.87 1.58ZM164.87-18.53L164.87-18.53Q168.14-18.53 169.78-20.28L169.78-20.28L169.78-20.28Q171.42-22.04 171.42-25.76L171.42-25.76L171.42-37.06L171.42-37.06Q171.42-40.79 169.78-42.54L169.78-42.54L169.78-42.54Q168.14-44.30 164.87-44.30L164.87-44.30L164.87-44.30Q161.59-44.30 159.95-42.54L159.95-42.54L159.95-42.54Q158.31-40.79 158.31-37.06L158.31-37.06L158.31-25.76L158.31-25.76Q158.31-22.04 159.95-20.28L159.95-20.28L159.95-20.28Q161.59-18.53 164.87-18.53L164.87-18.53ZM230.52 1.58L230.52 1.58Q218.54 1.58 212.50-4.24L212.50-4.24L212.50-4.24Q206.45-10.06 206.45-23.84L206.45-23.84L206.45-44.30L201.48-44.30L201.48-62.83L201.48-62.83Q205.77-62.83 207.92-65.03L207.92-65.03L207.92-65.03Q210.07-67.23 210.07-71.08L210.07-71.08L210.07-76.16L234.02-76.16L234.02-62.83L249.28-62.83L249.28-44.30L234.02-44.30L234.02-25.76L234.02-25.76Q234.02-22.04 235.66-20.28L235.66-20.28L235.66-20.28Q237.30-18.53 240.58-18.53L240.58-18.53L240.58-18.53Q244.87-18.53 249.96-19.55L249.96-19.55L249.96-1.81L249.96-1.81Q246.79-0.57 241.42 0.51L241.42 0.51L241.42 0.51Q236.06 1.58 230.52 1.58L230.52 1.58ZM282.05-69.04L259.00-69.04L259.00-87.91L282.05-87.91L282.05-69.04ZM289.51 0L253.57 0L253.57-18.53L258.54-18.53L258.54-44.30L253.57-44.30L253.57-62.83L284.53-62.83L284.53-18.53L289.51-18.53L289.51 0ZM326.34 1.58L326.34 1.58Q310.30 1.58 301.26-6.84L301.26-6.84L301.26-6.84Q292.22-15.26 292.22-31.41L292.22-31.41L292.22-31.41Q292.22-47.57 301.26-55.99L301.26-55.99L301.26-55.99Q310.30-64.41 326.34-64.41L326.34-64.41L326.34-64.41Q342.62-64.41 351.54-55.88L351.54-55.88L351.54-55.88Q360.47-47.35 360.47-31.41L360.47-31.41L360.47-31.41Q360.47-15.26 351.43-6.84L351.43-6.84L351.43-6.84Q342.39 1.58 326.34 1.58L326.34 1.58ZM326.34-18.53L326.34-18.53Q329.62-18.53 331.26-20.28L331.26-20.28L331.26-20.28Q332.90-22.04 332.90-25.76L332.90-25.76L332.90-37.06L332.90-37.06Q332.90-40.79 331.26-42.54L331.26-42.54L331.26-42.54Q329.62-44.30 326.34-44.30L326.34-44.30L326.34-44.30Q323.07-44.30 321.43-42.54L321.43-42.54L321.43-42.54Q319.79-40.79 319.79-37.06L319.79-37.06L319.79-25.76L319.79-25.76Q319.79-22.04 321.43-20.28L321.43-20.28L321.43-20.28Q323.07-18.53 326.34-18.53L326.34-18.53ZM434.15-18.53L439.12-18.53L439.12 0L403.41 0L403.41-18.53L408.16-18.53L408.16-37.06L408.16-37.06Q408.16-40.79 406.57-42.54L406.57-42.54L406.57-42.54Q404.99-44.30 401.83-44.30L401.83-44.30L401.83-44.30Q395.05-44.30 395.05-37.06L395.05-37.06L395.05-18.53L399.79-18.53L399.79 0L364.09 0L364.09-18.53L369.06-18.53L369.06-44.30L364.09-44.30L364.09-62.83L395.05-62.83L395.05-54.01L395.05-54.01Q403.18-64.41 415.39-64.41L415.39-64.41L415.39-64.41Q424.77-64.41 429.46-58.53L429.46-58.53L429.46-58.53Q434.15-52.66 434.15-42.38L434.15-42.38L434.15-18.53ZM491.21 1.58L491.21 1.58Q485.45 1.58 480.98-1.24L480.98-1.24L480.98-1.24Q476.52-4.07 473.70-7.68L473.70-7.68L473.70 0L442.73 0L442.73-18.53L447.71-18.53L447.71-69.38L442.73-69.38L442.73-87.91L473.70-87.91L473.70-55.14L473.70-55.14Q476.52-58.76 480.98-61.59L480.98-61.59L480.98-61.59Q485.45-64.41 491.21-64.41L491.21-64.41L491.21-64.41Q502.74-64.41 508.56-55.82L508.56-55.82L508.56-55.82Q514.38-47.23 514.38-31.41L514.38-31.41L514.38-31.41Q514.38-15.59 508.56-7.01L508.56-7.01L508.56-7.01Q502.74 1.58 491.21 1.58L491.21 1.58ZM480.25-18.53L480.25-18.53Q483.53-18.53 485.17-20.28L485.17-20.28L485.17-20.28Q486.80-22.04 486.80-25.76L486.80-25.76L486.80-37.06L486.80-37.06Q486.80-40.79 485.17-42.54L485.17-42.54L485.17-42.54Q483.53-44.30 480.25-44.30L480.25-44.30L480.25-44.30Q476.97-44.30 475.33-42.54L475.33-42.54L475.33-42.54Q473.70-40.79 473.70-37.06L473.70-37.06L473.70-25.76L473.70-25.76Q473.70-22.04 475.33-20.28L475.33-20.28L475.33-20.28Q476.97-18.53 480.25-18.53L480.25-18.53ZM551.21 1.58L551.21 1.58Q535.17 1.58 526.13-6.84L526.13-6.84L526.13-6.84Q517.09-15.26 517.09-31.41L517.09-31.41L517.09-31.41Q517.09-47.57 526.13-55.99L526.13-55.99L526.13-55.99Q535.17-64.41 551.21-64.41L551.21-64.41L551.21-64.41Q567.15-64.41 574.21-56.10L574.21-56.10L574.21-56.10Q581.27-47.80 581.27-35.48L581.27-35.48L581.27-27.35L544.66-27.35L544.66-26.67L544.66-26.67Q544.66-22.49 547.15-20.51L547.15-20.51L547.15-20.51Q549.63-18.53 555.39-18.53L555.39-18.53L555.39-18.53Q562.29-18.53 568.50-19.55L568.50-19.55L568.50-19.55Q574.72-20.57 579.35-22.15L579.35-22.15L579.35-4.07L579.35-4.07Q575.40-1.92 567.77-0.17L567.77-0.17L567.77-0.17Q560.14 1.58 551.21 1.58L551.21 1.58ZM544.66-39.78L557.77-39.78L557.77-41.13L557.77-41.13Q557.77-44.97 556.13-46.67L556.13-46.67L556.13-46.67Q554.49-48.36 551.21-48.36L551.21-48.36L551.21-48.36Q547.94-48.36 546.30-46.61L546.30-46.61L546.30-46.61Q544.66-44.86 544.66-41.13L544.66-41.13L544.66-39.78ZM632.91-64.41L632.91-64.41Q635.17-64.41 637.21-63.96L637.21-63.96L637.21-63.96Q639.24-63.51 640.60-62.83L640.60-62.83L640.60-41.25L640.60-41.25Q635.96-43.17 630.65-43.17L630.65-43.17L630.65-43.17Q623.53-43.17 619.69-39.44L619.69-39.44L619.69-39.44Q615.85-35.71 615.85-28.36L615.85-28.36L615.85-18.53L626.02-18.53L626.02 0L584.89 0L584.89-18.53L589.86-18.53L589.86-44.30L584.89-44.30L584.89-62.83L615.85-62.83L615.85-54.58L615.85-54.58Q619.01-59.33 623.08-61.87L623.08-61.87L623.08-61.87Q627.15-64.41 632.91-64.41L632.91-64.41ZM692.46-64.41L692.46-64.41Q694.72-64.41 696.76-63.96L696.76-63.96L696.76-63.96Q698.79-63.51 700.15-62.83L700.15-62.83L700.15-41.25L700.15-41.25Q695.51-43.17 690.20-43.17L690.20-43.17L690.20-43.17Q683.08-43.17 679.24-39.44L679.24-39.44L679.24-39.44Q675.40-35.71 675.40-28.36L675.40-28.36L675.40-18.53L685.57-18.53L685.57 0L644.44 0L644.44-18.53L649.41-18.53L649.41-44.30L644.44-44.30L644.44-62.83L675.40-62.83L675.40-54.58L675.40-54.58Q678.56-59.33 682.63-61.87L682.63-61.87L682.63-61.87Q686.70-64.41 692.46-64.41L692.46-64.41ZM740.38-62.83L771.79-62.83L771.79-44.30L767.50-44.30L752.69-5.08L752.69-5.08Q747.16 9.72 740.04 17.12L740.04 17.12L740.04 17.12Q732.92 24.52 721.28 24.52L721.28 24.52L721.28 24.52Q716.53 24.52 711.67 23.56L711.67 23.56L711.67 23.56Q706.82 22.60 702.86 20.91L702.86 20.91L702.86 0.45L718.45 0.45L718.45 1.58L718.45 1.58Q718.45 4.41 721.39 4.41L721.39 4.41L721.39 4.41Q723.99 4.41 725.35 1.92L725.35 1.92L707.49-44.30L703.20-44.30L703.20-62.83L736.76-62.83L736.76-44.30L732.92-44.30L738.79-26.67L744.22-44.30L740.38-44.30L740.38-62.83Z" fill="#b58900"></path></g></g><style>text {
  font-size: 64px;
  font-family: Arial Black;
  dominant-baseline: central;
  text-anchor: middle;
}</style></svg>